<svg preserveAspectRatio="none" overflow="visible" style="display: block;" width="24" height="24" viewBox="0 0 24 24" fill="none" xmlns="http://www.w3.org/2000/svg">
<g id="addphoto">
<g id="asset">
<path d="M19.3369 14C19.7656 14.0002 20.1071 14.359 20.0859 14.7871L19.9209 18.0781L23.2129 17.9141C23.641 17.8929 23.9998 18.2344 24 18.6631V19.3369C23.9998 19.7656 23.641 20.1071 23.2129 20.0859L19.9209 19.9209L20.0859 23.2129C20.1071 23.641 19.7656 23.9998 19.3369 24H18.6631C18.2344 23.9998 17.8929 23.641 17.9141 23.2129L18.0781 19.9209L14.7871 20.0859C14.359 20.1071 14.0002 19.7656 14 19.3369V18.6631C14.0002 18.2344 14.359 17.8929 14.7871 17.9141L18.0781 18.0781L17.9141 14.7871C17.8929 14.359 18.2344 14.0002 18.6631 14H19.3369Z" fill="#312B36"/>
<path fill-rule="evenodd" clip-rule="evenodd" d="M20.5 3C20.7761 3 21 3.22386 21 3.5V12.291C20.3662 12.1024 19.6951 12 19 12C18.3873 12 17.7929 12.0787 17.2266 12.2266L15.3535 10.3535C15.1583 10.1583 14.8417 10.1583 14.6465 10.3535L10 15L8.35352 13.3535C8.15826 13.1583 7.84174 13.1583 7.64648 13.3535L5.14648 15.8535C5.05273 15.9473 5.00002 16.0745 5 16.207V18.75C5 18.8881 5.11193 19 5.25 19H12C12 19.6951 12.1024 20.3662 12.291 21H3.5C3.22386 21 3 20.7761 3 20.5V3.5C3 3.22386 3.22386 3 3.5 3H20.5ZM8 6C6.89543 6 6 6.89543 6 8C6 9.10457 6.89543 10 8 10C9.10457 10 10 9.10457 10 8C10 6.89543 9.10457 6 8 6Z" fill="#312B36"/>
</g>
</g>
</svg>
